HIERARCHY
ROOT Hips
{
	OFFSET 0.00 0.00 0.00
	CHANNELS 6 Xposition Yposition Zposition Xrotation Yrotation Zrotation
	JOINT LeftUpLeg
	{
		OFFSET 3.34807 0.00000 0.00000
		CHANNELS 3 Xrotation Yrotation Zrotation
		JOINT LeftLeg
		{
			OFFSET 0.00000 -16.98552 0.00000
			CHANNELS 3 Xrotation Yrotation Zrotation
			JOINT LeftFoot
			{
				OFFSET 0.00000 -16.83686 0.00000
				CHANNELS 3 Xrotation Yrotation Zrotation
				JOINT LeftToeBase
				{
					OFFSET 0.00000 -1.59599 5.95633
					CHANNELS 3 Xrotation Yrotation Zrotation
					End Site
					{
						OFFSET 0.00000 0.00000 2.95275
					}
				}
			}
		}
	}
	JOINT RightUpLeg
	{
		OFFSET -3.34807 0.00000 0.00000
		CHANNELS 3 Xrotation Yrotation Zrotation
		JOINT RightLeg
		{
			OFFSET 0.00000 -16.98552 0.00000
			CHANNELS 3 Xrotation Yrotation Zrotation
			JOINT RightFoot
			{
				OFFSET 0.00000 -16.83686 0.00000
				CHANNELS 3 Xrotation Yrotation Zrotation
				JOINT RightToeBase
				{
					OFFSET 0.00000 -1.59599 5.95633
					CHANNELS 3 Xrotation Yrotation Zrotation
					End Site
					{
						OFFSET 0.00000 0.00000 2.95275
					}
				}
			}
		}
	}
	JOINT Spine
	{
		OFFSET 0.00000 0.03937 0.00000
		CHANNELS 3 Xrotation Yrotation Zrotation
		JOINT Spine1
		{
			OFFSET 0.00000 7.93124 0.00000
			CHANNELS 3 Xrotation Yrotation Zrotation
			JOINT Neck
			{
				OFFSET 0.00000 8.48368 0.00000
				CHANNELS 3 Xrotation Yrotation Zrotation
				JOINT Head
				{
					OFFSET 0.00000 6.65077 0.00000
					CHANNELS 3 Xrotation Yrotation Zrotation
					End Site
					{
						OFFSET 0.00000 4.52755 0.00000
					}
				}
			}
			JOINT LeftShoulder
			{
				OFFSET 0.00000 8.48368 0.00000
				CHANNELS 3 Xrotation Yrotation Zrotation
				JOINT LeftArm
				{
					OFFSET 7.74502 -0.00003 0.00000
					CHANNELS 3 Xrotation Yrotation Zrotation
					JOINT LeftForeArm
					{
						OFFSET 12.49824 -0.00005 0.00000
						CHANNELS 3 Xrotation Yrotation Zrotation
						JOINT LeftHand
						{
							OFFSET 9.88337 -0.00004 0.00000
							CHANNELS 3 Xrotation Yrotation Zrotation
							JOINT LeftHandThumb
							{
								OFFSET 0.00000 0.00000 0.00000
								CHANNELS 3 Xrotation Yrotation Zrotation
								End Site
								{
									OFFSET 0.00000 0.00000 3.93700
								}
							}
							JOINT L_Wrist_End
							{
								OFFSET 3.93700 -0.00001 0.00000
								CHANNELS 3 Xrotation Yrotation Zrotation
							}
						}
					}
				}
			}
			JOINT RightShoulder
			{
				OFFSET 0.00000 8.48368 0.00000
				CHANNELS 3 Xrotation Yrotation Zrotation
				JOINT RightArm
				{
					OFFSET -7.74502 -0.00003 0.00000
					CHANNELS 3 Xrotation Yrotation Zrotation
					JOINT RightForeArm
					{
						OFFSET -12.49824 -0.00005 0.00000
						CHANNELS 3 Xrotation Yrotation Zrotation
						JOINT RightHand
						{
							OFFSET -9.88337 -0.00004 0.00000
							CHANNELS 3 Xrotation Yrotation Zrotation
							JOINT RightHandThumb
							{
								OFFSET 0.00000 0.00000 0.00000
								CHANNELS 3 Xrotation Yrotation Zrotation
								End Site
								{
									OFFSET 0.00000 0.00000 3.93700
								}
							}
							JOINT R_Wrist_End
							{
								OFFSET -5.39369 -0.00002 0.00000
								CHANNELS 3 Xrotation Yrotation Zrotation
							}
						}
					}
				}
			}
		}
	}
}
MOTION
Frames: 19
Frame Time: 0.033332
 87.7818 30.6462 -3.2233 174.2216 -85.5282 171.4086 17.1175 20.0375 0.7886 30.8554 0.0000 -0.0000 -39.7354 2.8751 -16.8122 -2.4558 0.0000 0.0000 -46.1981 -1.0077 8.2112 34.1708 -0.0000 0.0000 -9.5314 -12.4910 10.2856 -5.8101 0.0000 0.0000 -1.7338 -5.4931 -0.1251 16.9983 -9.3939 0.8918 -12.8319 10.8141 2.9952 -10.6293 -3.2028 1.4433 -21.0127 10.1336 32.5056 -69.3760 -10.8449 -75.8366 -0.0002 -47.3750 -0.0001 -29.0101 -48.4039 37.0586 -0.0000 0.0000 -0.0000 -0.0000 0.0000 -0.0000 22.2047 -17.0961 -11.6381 -11.8020 16.6953 81.0332 0.0000 -3.0734 0.0000 74.5697 -77.1592 -114.3712 -0.0000 -0.0000 0.0000 -0.0000 -0.0000 0.0000
 86.1436 30.1434 -3.3467 163.4541 -86.5745 160.9721 19.7780 20.8332 1.1409 30.2300 0.0000 -0.0000 -38.1466 2.0810 -19.4493 -6.0332 -0.0000 0.0000 -47.5213 -1.6633 7.1684 42.0047 0.0000 0.0000 -11.1026 -19.3906 7.6797 -7.7378 0.0000 0.0000 -2.1105 -5.5327 -0.4813 17.0240 -9.1087 1.7073 -13.3556 10.4212 3.5301 -10.6465 -4.0574 0.7329 -19.3237 11.6729 31.7699 -67.8307 -11.8187 -79.3804 -0.0002 -49.0972 -0.0001 -29.0194 -48.6186 37.6442 -0.0000 0.0000 -0.0000 -0.0000 0.0000 -0.0000 21.9209 -15.7749 -10.5630 -13.3274 18.0374 82.1996 0.0000 -5.5000 0.0000 76.7895 -77.4083 -111.7524 -0.0000 -0.0000 0.0000 -0.0000 -0.0000 0.0000
 84.3755 29.8807 -3.5523 133.6049 -87.0479 130.6450 21.1683 21.3094 2.8434 29.9273 0.0000 0.0000 -33.5511 0.4010 -22.0198 -12.2626 -0.0000 0.0000 -50.0239 -4.6754 5.8514 49.6162 -0.0000 0.0000 -10.1031 -20.5131 9.7996 -7.0989 0.0000 0.0000 -1.8987 -5.7801 -1.3242 15.6831 -8.1757 4.8268 -14.2616 9.6971 3.4329 -9.9356 -4.3807 -0.2914 -18.1529 13.0213 30.7052 -62.9818 -11.6638 -84.7204 -0.0003 -51.7998 -0.0001 -28.4807 -47.9566 37.0641 -0.0000 0.0000 -0.0000 -0.0000 0.0000 -0.0000 21.2581 -15.2821 -10.0744 -15.7774 20.4594 83.5677 0.0000 -6.8422 0.0000 77.3883 -77.5611 -110.6804 -0.0000 0.0000 -0.0000 -0.0000 0.0000 -0.0000
 82.4552 29.8096 -3.7684 110.9817 -87.1161 107.4480 21.3740 21.6953 5.4317 32.5029 -0.0000 0.0000 -25.1467 -2.6789 -22.3902 -23.6720 0.0000 -0.0000 -50.4210 -8.4586 4.6074 55.4434 -0.0000 0.0000 -11.8248 -16.7535 7.0190 -0.5349 -0.0000 -0.0000 -2.0170 -5.7860 -1.4931 15.2522 -7.4549 6.9172 -15.0599 8.8976 3.4047 -9.9896 -4.7612 -1.1082 -16.7457 13.4312 29.1802 -56.2494 -12.4906 -89.6944 -0.0003 -53.8580 -0.0001 -25.9261 -47.3108 37.6554 -0.0000 0.0000 -0.0000 -0.0000 0.0000 -0.0000 20.1339 -13.5970 -9.9564 -19.0007 20.4395 85.5453 0.0000 -6.7478 0.0000 78.0575 -77.0000 -109.1963 -0.0000 0.0000 -0.0000 -0.0000 0.0000 -0.0000
 80.4876 29.8348 -4.0113 93.0551 -87.5061 89.7128 19.0784 20.8357 8.3404 40.4396 -0.0000 0.0000 -13.9202 -5.6427 -21.2805 -33.5401 -0.0000 0.0000 -48.6254 -10.7804 3.3625 59.5557 -0.0000 0.0000 -17.3782 -16.4874 6.6379 6.4623 -0.0000 -0.0000 -1.7504 -5.3874 -1.2965 14.4792 -7.0257 7.0830 -15.4906 8.2128 3.4614 -10.0719 -5.7990 -1.5221 -15.9308 12.7966 27.2981 -48.2483 -16.0953 -93.8163 -0.0003 -52.3085 -0.0001 -25.0660 -47.0147 38.8334 -0.0000 0.0000 -0.0000 -0.0000 0.0000 -0.0000 19.0314 -11.0305 -9.6016 -23.1788 21.0133 87.6986 0.0000 -6.4064 0.0000 77.2066 -77.0885 -108.8010 -0.0000 -0.0000 0.0000 -0.0000 -0.0000 0.0000
 78.6816 29.9213 -4.1916 116.8729 -87.9308 113.7903 14.7493 17.4491 9.7493 53.4061 -0.0000 0.0000 -10.4215 -3.3194 -24.4711 -9.3734 -0.0000 0.0000 -45.9349 -12.1333 3.0364 62.2017 -0.0000 0.0000 -21.2910 -14.9581 5.6376 6.8300 -0.0000 0.0000 -1.1845 -4.3824 -0.6125 13.7762 -6.1874 6.5647 -15.4025 7.3014 2.6923 -10.5183 -5.9743 -1.1418 -14.8444 13.4079 24.7624 -41.5656 -21.4929 -97.0788 -0.0002 -45.8665 -0.0001 -25.8905 -45.0492 38.3604 -0.0000 0.0000 -0.0000 -0.0000 0.0000 -0.0000 17.3631 -7.3011 -10.3073 -28.9228 23.2118 89.5246 0.0000 -5.7103 0.0000 80.1497 -76.0786 -104.6468 -0.0000 0.0000 -0.0000 -0.0000 0.0000 -0.0000
 77.0034 30.1145 -4.3811 168.0936 -87.2275 164.2325 8.6214 14.5250 11.4662 68.5409 -0.0000 0.0000 -12.3189 1.0300 -25.2607 -0.5258 0.0000 -0.0000 -41.5554 -12.9289 4.3523 62.8654 -0.0000 0.0000 -24.1641 -13.5785 5.5096 6.7881 0.0000 -0.0000 -0.4434 -3.1511 1.0048 13.4066 -5.2255 5.7420 -14.7389 7.4931 2.5720 -10.8034 -6.1779 -1.9030 -13.6070 14.6551 22.9717 -35.0429 -24.5490 -100.0961 -0.0002 -35.6881 -0.0000 -24.6348 -38.9848 33.1786 -0.0000 0.0000 -0.0000 -0.0000 0.0000 -0.0000 15.4142 -3.2387 -10.9347 -36.8553 25.2433 90.3753 0.0000 -5.2958 0.0000 81.9686 -76.0518 -101.7586 -0.0000 0.0000 -0.0000 -0.0000 0.0000 -0.0000
 75.4951 30.5540 -4.6322 -176.6916 -85.3913 178.7582 -0.1725 12.0021 13.6795 84.1039 0.0000 0.0000 -14.0137 3.7589 -24.7102 1.3103 0.0000 -0.0000 -36.6313 -12.3619 6.3193 61.1301 -0.0000 0.0000 -25.9329 -12.8157 5.5424 6.4564 0.0000 0.0000 -0.2953 -2.0938 1.6361 13.4350 -4.1898 5.6406 -14.5237 8.0012 3.0212 -9.9526 -6.2693 -3.2561 -12.1488 16.8362 21.8996 -28.8928 -27.6801 -102.5050 -0.0001 -24.1477 -0.0000 -15.3559 -35.4872 33.3450 -0.0000 0.0000 -0.0000 -0.0000 0.0000 -0.0000 12.7486 0.1883 -11.3035 -45.4330 24.8595 89.8642 0.0000 -3.5318 0.0000 86.0096 -77.6213 -99.1491 -0.0000 0.0000 -0.0000 -0.0000 0.0000 -0.0000
 74.1389 31.2917 -4.8674 -171.1374 -84.2847 -175.8303 -10.3949 8.6772 15.4247 97.3150 -0.0000 0.0000 -15.0669 3.6867 -24.3777 2.8640 0.0000 0.0000 -31.1222 -11.5991 7.4031 57.0429 -0.0000 0.0000 -26.3027 -12.0067 5.9359 6.0862 0.0000 0.0000 -0.2210 -1.1220 1.8730 13.6249 -3.3153 5.2600 -14.4748 7.7826 3.2058 -9.3473 -6.7035 -4.1449 -10.5404 18.7951 20.8171 -20.7309 -30.3977 -102.5069 -0.0001 -16.5403 -0.0000 -6.2608 -32.6429 36.7692 -0.0000 -0.0000 0.0000 -0.0000 -0.0000 0.0000 10.6116 2.2587 -12.3935 -54.7924 17.3578 89.3233 0.0000 -0.5711 0.0000 88.9665 -80.2853 -100.8504 -0.0000 0.0000 -0.0000 -0.0000 0.0000 -0.0000
 72.8908 32.3264 -5.0779 -169.4375 -84.1705 -174.1498 -21.4887 4.7240 16.2375 106.4171 -0.0000 0.0000 -16.6452 3.4729 -23.6758 3.5924 0.0000 -0.0000 -24.6585 -11.4663 7.8692 49.7843 -0.0000 0.0000 -25.0641 -10.7821 6.5943 5.9990 -0.0000 0.0000 -0.2596 -0.0606 2.3188 13.6996 -2.5804 4.1217 -13.8615 6.9938 3.2044 -10.1824 -8.0311 -4.3031 -8.0754 21.3924 19.6239 -12.6067 -33.3627 -99.9626 -0.0000 -12.2889 -0.0000 -2.5717 -30.4707 35.1302 -0.0000 -0.0000 0.0000 -0.0000 -0.0000 0.0000 8.8215 3.4585 -13.7443 -61.8401 14.1925 87.9752 -0.0000 5.4843 0.0000 79.3680 -82.9320 -106.1613 -0.0000 -0.0000 0.0000 -0.0000 -0.0000 0.0000
 71.6347 33.5888 -5.2506 -171.3788 -84.4478 -175.5823 -32.3242 1.5393 15.5332 110.6166 0.0000 0.0000 -18.4345 3.4228 -22.3063 2.1067 -0.0000 0.0000 -17.3007 -11.5373 7.7733 39.5128 -0.0000 0.0000 -21.5431 -9.0691 7.7850 5.3812 0.0000 -0.0000 -0.4776 0.9731 2.4451 13.6941 -2.0095 2.5100 -13.5393 5.9418 2.9346 -10.7503 -9.5271 -3.6732 -7.1106 22.8917 19.7673 -1.8471 -37.4154 -95.3226 -0.0000 -11.4515 -0.0000 -5.2585 -30.7127 32.2048 -0.0000 0.0000 -0.0000 -0.0000 0.0000 -0.0000 7.6880 3.6805 -15.1890 -68.1548 13.6246 86.0192 -0.0000 11.6742 0.0000 64.3796 -83.7741 -114.6993 -0.0000 0.0000 -0.0000 -0.0000 0.0000 -0.0000
 70.3625 34.9155 -5.2996 -172.4570 -84.1366 -174.8082 -41.2726 1.2340 13.0709 110.2728 0.0000 0.0000 -20.0001 4.1705 -19.5626 0.2917 -0.0000 -0.0000 -10.1323 -11.4207 6.0697 28.9024 -0.0000 0.0000 -15.2070 -6.6998 11.2682 3.4588 0.0000 0.0000 -0.5283 2.3862 2.2932 13.9528 -1.4556 -0.3974 -13.7642 4.8067 2.4128 -10.4016 -10.8444 -2.6252 -5.9213 23.9036 20.3118 9.5540 -40.7414 -89.1681 -0.0000 -12.9042 -0.0000 -6.6736 -31.3989 30.0005 -0.0000 0.0000 -0.0000 -0.0000 0.0000 -0.0000 6.5894 3.3089 -16.9801 -73.4585 12.3445 83.7442 -0.0001 17.5851 0.0000 47.7661 -83.4013 -127.8704 -0.0000 0.0000 -0.0000 -0.0000 0.0000 -0.0000
 69.1497 36.1245 -5.2289 -176.3117 -82.4775 -176.1945 -47.9081 3.8110 10.6735 106.2346 0.0000 0.0000 -20.3707 5.7951 -16.7572 0.1144 -0.0000 0.0000 -5.7903 -12.2931 3.0720 22.1671 -0.0000 0.0000 -7.4254 -3.2077 15.8120 0.3337 -0.0000 0.0000 -1.1303 3.8819 2.0839 15.3921 -0.9778 -3.7436 -13.8789 4.4296 2.1296 -11.1223 -11.3493 -2.4115 -4.5981 24.7393 21.1056 19.9532 -39.8125 -84.1452 -0.0001 -15.0018 -0.0000 -6.7945 -32.7269 29.5640 -0.0000 0.0000 -0.0000 -0.0000 0.0000 -0.0000 5.8515 3.0385 -19.2708 -79.4412 11.8087 81.2301 -0.0001 22.1374 0.0000 36.8754 -82.6181 -138.0176 -0.0000 0.0000 -0.0000 -0.0000 0.0000 -0.0000
 67.9883 37.0705 -5.1627 179.6875 -80.1376 -179.1029 -52.3047 5.9043 9.9521 99.8962 -0.0000 0.0000 -18.3920 4.0869 -14.8657 -1.4215 0.0000 0.0000 -3.7457 -15.0914 1.1184 19.0766 -0.0000 0.0000 -0.2048 0.8067 19.1695 -4.4587 -0.0000 -0.0000 -2.0792 5.0754 2.0906 17.3094 -0.2191 -5.2387 -14.2079 4.3005 1.7765 -11.9193 -10.8851 -2.9060 -2.2246 25.7963 21.3171 27.0024 -36.1762 -81.8360 -0.0001 -16.1098 -0.0000 -9.1224 -33.6917 28.7839 -0.0000 0.0000 -0.0000 -0.0000 0.0000 -0.0000 4.3357 2.7989 -21.7214 -85.1338 12.8756 78.5788 -0.0001 24.7915 0.0000 28.7386 -82.5953 -147.1224 -0.0000 0.0000 -0.0000 -0.0000 0.0000 -0.0000
 66.7630 37.6774 -5.1423 179.1690 -78.8759 -179.5349 -54.0433 6.7396 9.2538 91.8291 -0.0000 0.0000 -15.0962 0.6114 -14.8894 -3.8867 0.0000 0.0000 -2.0857 -19.4064 0.0261 17.8179 -0.0000 0.0000 4.8521 3.9538 21.6014 -8.1123 0.0000 0.0000 -3.0732 5.4128 2.4707 19.0858 -0.0746 -5.8788 -14.2066 4.7916 1.9169 -12.2310 -10.3577 -3.8617 0.3146 26.5204 22.1162 32.1127 -32.8870 -81.6192 -0.0001 -15.7987 -0.0000 -12.7766 -33.8177 27.7061 -0.0000 0.0000 -0.0000 -0.0000 0.0000 -0.0000 2.5052 3.2167 -23.6105 -89.9787 14.0004 75.8671 -0.0001 25.4402 0.0000 27.9218 -81.8771 -149.5465 -0.0000 -0.0000 0.0000 -0.0000 -0.0000 0.0000
 65.4674 37.9163 -5.2027 -177.5882 -79.3066 -176.7667 -53.2636 6.6226 7.8237 82.3844 -0.0000 0.0000 -12.8753 -1.8034 -16.4123 -4.7296 0.0000 0.0000 0.6141 -22.4172 -0.0734 16.9710 -0.0000 0.0000 7.2132 5.1371 22.4386 -7.3856 -0.0000 0.0000 -3.3778 5.3396 2.8886 19.9560 -0.2457 -6.1662 -13.9252 5.2751 2.6594 -11.7075 -10.6867 -4.7700 3.0091 26.4357 23.4467 36.1990 -30.9756 -81.5746 -0.0001 -15.0412 -0.0000 -14.8745 -31.6304 24.3535 -0.0000 -0.0000 0.0000 -0.0000 -0.0000 0.0000 1.0113 3.4130 -24.2383 -93.1510 15.7823 72.9144 -0.0001 25.1756 0.0000 24.3106 -82.0066 -153.4949 -0.0000 0.0000 -0.0000 -0.0000 0.0000 -0.0000
 64.1395 37.8166 -5.2930 -173.9810 -80.2347 -173.8509 -51.2075 6.6651 6.3892 71.7626 -0.0000 0.0000 -11.6429 -1.9254 -16.1294 -5.6610 0.0000 -0.0000 3.8582 -22.2723 0.7201 16.4107 -0.0000 0.0000 6.8948 4.3992 22.1700 -8.1726 0.0000 0.0000 -3.9394 5.2424 3.3820 20.9886 -0.2704 -6.1198 -13.9231 5.2137 3.0457 -10.9420 -11.1675 -4.9649 5.4925 26.4113 24.1845 39.6366 -31.3364 -80.1805 -0.0001 -14.6502 -0.0000 -16.0061 -28.6017 18.7811 -0.0000 0.0000 -0.0000 -0.0000 0.0000 -0.0000 1.0401 2.1836 -24.6674 -97.2811 16.5986 70.7233 -0.0001 24.4432 0.0000 23.7488 -82.0112 -155.1187 -0.0000 -0.0000 0.0000 -0.0000 -0.0000 0.0000
 62.8040 37.4121 -5.4166 -171.4519 -81.3245 -172.2504 -48.4963 6.7977 5.3629 60.0730 -0.0000 0.0000 -10.4897 -0.8766 -15.4124 -6.2823 0.0000 -0.0000 7.2068 -19.7881 2.2771 15.9192 -0.0000 0.0000 4.2176 1.5825 22.1526 -8.5230 0.0000 -0.0000 -4.7268 5.1627 3.8136 21.8851 -0.1095 -5.7968 -13.7639 5.3251 3.6673 -11.1105 -11.9900 -5.3827 6.8730 26.8747 25.0018 42.4997 -33.3200 -77.6504 -0.0001 -14.1820 -0.0000 -17.5372 -25.7066 12.7796 -0.0000 0.0000 -0.0000 -0.0000 0.0000 -0.0000 0.3711 1.0374 -24.8678 -99.1718 17.0473 68.9229 -0.0001 23.8439 0.0000 13.3799 -82.4956 -166.5495 -0.0000 0.0000 -0.0000 -0.0000 0.0000 -0.0000
 61.4440 36.7375 -5.5392 -170.3261 -82.7021 -172.2600 -45.5425 6.8988 4.5322 47.7162 -0.0000 0.0000 -9.7276 -0.1460 -15.4315 -6.4078 0.0000 0.0000 10.2762 -18.0822 3.9296 15.9746 -0.0000 0.0000 -0.3596 -0.4749 22.2277 -7.6397 0.0000 0.0000 -5.8000 4.8075 4.0075 22.7260 0.2034 -4.7461 -13.5175 5.4188 4.1075 -11.6681 -12.6305 -5.7686 6.7703 27.2263 25.7300 44.6463 -33.3079 -75.1618 -0.0001 -13.6285 -0.0000 -17.6806 -23.4736 6.6828 -0.0000 0.0000 -0.0000 -0.0000 0.0000 -0.0000 -0.3116 -0.1201 -24.9389 -99.9126 17.7444 67.7747 -0.0001 23.3614 0.0000 10.1867 -82.5605 -170.0603 -0.0000 0.0000 -0.0000 -0.0000 0.0000 -0.0000
